<svg width="251" height="56" viewBox="0 0 251 56" fill="none" xmlns="http://www.w3.org/2000/svg">
<path d="M29.592 56C45.056 56 57.592 43.464 57.592 28C57.592 12.536 45.056 0 29.592 0C14.128 0 1.59204 12.536 1.59204 28C1.59204 43.464 14.128 56 29.592 56Z" fill="white"/>
<path fill-rule="evenodd" clip-rule="evenodd" d="M36.4903 3.78686C34.2786 4.89293 32.3212 6.44698 30.7425 8.35023C25.4575 14.7177 22.5836 22.0913 21.0215 29.8384C18.5382 28.3781 16.5727 26.1113 15.1549 23.0464L10.3793 25.2665C12.5612 29.936 15.8978 33.3702 20.1428 35.272C19.5205 40.5286 19.203 45.8168 19.1919 51.1101C13.4184 48.4555 8.85628 43.7242 6.4135 37.858C3.97072 31.9918 3.82643 25.4208 6.00942 19.453C8.19241 13.4853 12.5426 8.55835 18.194 5.65296C23.8454 2.74757 30.3836 2.07679 36.5072 3.77413L36.4903 3.78686Z" fill="#001B71"/>
<path fill-rule="evenodd" clip-rule="evenodd" d="M53.1347 18.6313C52.3693 21.8685 50.905 24.899 48.8444 27.5104C46.7837 30.1217 44.1768 32.2506 41.2063 33.7478C35.7727 36.4773 30.2373 37.5088 25.2452 36.7702C24.6622 42.1144 24.3788 47.4871 24.3962 52.863C22.5876 52.4808 20.8277 51.897 19.1493 51.1225C19.1603 45.8292 19.4779 40.541 20.1002 35.2844C15.8849 33.3827 12.5356 29.957 10.3367 25.279L15.1124 23.0589C16.5302 26.111 18.5083 28.3778 20.9789 29.8508C22.5411 22.1037 25.4149 14.7132 30.7 8.36269C32.2787 6.45943 34.236 4.90539 36.4476 3.79932C39.5189 4.65459 42.3998 6.08499 44.9376 8.01459C44.4301 7.76459 43.8828 7.60513 43.3203 7.5434C40.5738 7.22927 37.0462 8.95273 34.737 11.7247C29.9868 17.4385 27.4058 24.3026 26.0135 31.5743C29.9104 32.1262 34.4313 31.2602 38.8036 29.057C43.7703 26.561 47.3488 21.7514 48.1426 16.5088C48.3761 14.9552 48.461 12.6883 47.5016 10.8036C47.2611 10.312 46.9679 9.84798 46.6272 9.41969C49.4611 11.9621 51.6854 15.1107 53.1347 18.6313Z" fill="white"/>
<path d="M47.5612 10.7908C47.3206 10.2993 47.0274 9.83527 46.6867 9.40697C46.2401 8.81062 45.6581 8.32901 44.9887 8.00188C44.4812 7.75187 43.9338 7.59241 43.3714 7.53068C40.6249 7.21655 37.0973 8.94002 34.788 11.712C30.0379 17.4258 27.4569 24.2899 26.0645 31.5616C29.9614 32.1134 34.4823 31.2475 38.8547 29.0443C43.8213 26.5483 47.3999 21.7387 48.1937 16.4961C48.4356 14.9424 48.5205 12.6884 47.5612 10.7908Z" fill="#00A19B"/>
<path fill-rule="evenodd" clip-rule="evenodd" d="M52.7867 19.0983C53.1774 19.2584 53.5537 19.4515 53.9116 19.6756C54.1875 20.9958 54.1876 20.9958 54.4083 22.3499C54.0299 22.1907 53.6396 22.0616 53.2409 21.9636C53.0372 20.5118 53.0372 20.5118 52.7867 19.0983Z" fill="#00A19B"/>
<path fill-rule="evenodd" clip-rule="evenodd" d="M50.5878 23.11C51.6533 23.2204 51.6533 23.2204 52.5915 23.352C52.6891 24.9141 52.6891 24.9141 52.74 26.5145C51.7934 26.4805 51.7934 26.4805 50.7194 26.4763C50.6728 24.7783 50.6727 24.7783 50.5878 23.11Z" fill="#00A19B"/>
<path fill-rule="evenodd" clip-rule="evenodd" d="M53.398 23.4835C53.7973 23.5459 54.1917 23.6367 54.5781 23.7552C54.6885 25.1645 54.6885 25.1645 54.7437 26.5993C54.2216 26.5611 54.2215 26.5611 53.5508 26.5357C53.4999 24.999 53.4999 24.999 53.398 23.4835Z" fill="#00A19B"/>
<path fill-rule="evenodd" clip-rule="evenodd" d="M46.7673 28.1951L49.5096 28.1611C49.4714 29.8804 49.4714 29.8804 49.3865 31.6038L46.6655 31.7906C46.7334 29.9992 46.7334 29.9992 46.7673 28.1951Z" fill="#00A19B"/>
<path fill-rule="evenodd" clip-rule="evenodd" d="M53.5593 28.0683C54.23 28.0428 54.23 28.0428 54.7522 28.0046C54.697 29.4394 54.697 29.4395 54.5866 30.8488C54.2002 30.9673 53.8058 31.0581 53.4065 31.1205C53.5084 29.605 53.5084 29.605 53.5593 28.0683Z" fill="#00A19B"/>
<path fill-rule="evenodd" clip-rule="evenodd" d="M41.7923 33.854C43.4903 33.7648 43.4903 33.7648 45.0694 33.663C44.9463 35.4119 44.9463 35.4119 44.7892 37.1269C43.2271 37.2797 43.2271 37.2797 41.5715 37.4283C41.6946 35.6666 41.6946 35.6666 41.7923 33.854Z" fill="#00A19B"/>
<path fill-rule="evenodd" clip-rule="evenodd" d="M46.5763 33.54C47.9814 33.4169 47.9814 33.4168 49.2804 33.281C49.1191 34.9196 49.1191 34.9196 48.9111 36.5369C47.6376 36.7449 47.6375 36.7449 46.2706 36.936C46.4362 35.2719 46.4362 35.2719 46.5763 33.54Z" fill="#00A19B"/>
<path fill-rule="evenodd" clip-rule="evenodd" d="M50.4563 33.1453C51.5218 32.9713 51.5219 32.9713 52.4515 32.7972C52.2563 34.3127 52.2563 34.3127 52.027 35.79C51.1228 36.0447 51.1228 36.0447 50.087 36.2994C50.3035 34.7372 50.3035 34.7372 50.4733 33.1453" fill="#00A19B"/>
<path fill-rule="evenodd" clip-rule="evenodd" d="M53.2409 32.64C53.6396 32.542 54.0299 32.4129 54.4083 32.2537C54.1876 33.6078 54.1875 33.6078 53.9116 34.928C53.5556 35.1554 53.179 35.3487 52.7867 35.5053C53.0372 34.0917 53.0372 34.0917 53.2409 32.64Z" fill="#00A19B"/>
<path fill-rule="evenodd" clip-rule="evenodd" d="M24.8928 39.5719C26.7606 39.6186 26.7606 39.6186 28.6539 39.6398C28.6539 41.3378 28.6539 41.3378 28.6836 42.9594C26.8455 42.9297 26.8456 42.9297 25.0329 42.8703C24.9523 41.2614 24.9523 41.2614 24.8928 39.5719Z" fill="#00A19B"/>
<path fill-rule="evenodd" clip-rule="evenodd" d="M30.5472 39.6399C32.449 39.6144 32.449 39.6144 34.321 39.5635C34.2488 41.2615 34.2488 41.2615 34.1851 42.8618C32.3555 42.9298 32.3555 42.9298 30.5175 42.9595C30.5175 41.3421 30.5175 41.3421 30.5472 39.6399Z" fill="#00A19B"/>
<path fill-rule="evenodd" clip-rule="evenodd" d="M36.1548 39.4871C37.9547 39.3937 37.9547 39.3937 39.7164 39.2706C39.5678 40.9219 39.5678 40.9219 39.415 42.4841C37.717 42.6369 37.717 42.6369 35.951 42.7685C36.0529 41.1724 36.0529 41.1724 36.1548 39.4871Z" fill="#00A19B"/>
<path fill-rule="evenodd" clip-rule="evenodd" d="M46.0585 38.5617C47.4211 38.3282 47.4211 38.3282 48.6734 38.0735C48.3975 39.5423 48.3975 39.5423 48.0791 40.9474C46.8693 41.27 46.8693 41.27 45.5661 41.5629C45.825 40.1068 45.825 40.1068 46.0585 38.5617Z" fill="#00A19B"/>
<path fill-rule="evenodd" clip-rule="evenodd" d="M49.811 37.8018C50.8298 37.5089 50.8298 37.5089 51.7212 37.2075C51.3816 38.5617 51.3816 38.5617 50.9995 39.8437C50.1505 40.2215 50.1506 40.2215 49.17 40.6078C49.5138 39.2409 49.5138 39.2409 49.811 37.8018Z" fill="#00A19B"/>
<path fill-rule="evenodd" clip-rule="evenodd" d="M52.4725 36.8935C52.8657 36.7001 53.2372 36.4653 53.5805 36.1931C53.2027 37.3944 53.2027 37.3944 52.7612 38.5491C52.4496 38.8765 52.1037 39.1697 51.7297 39.4235C52.1287 38.184 52.1287 38.184 52.4725 36.8766" fill="#00A19B"/>
<path fill-rule="evenodd" clip-rule="evenodd" d="M25.1179 44.3818C26.9092 44.454 26.9092 44.454 28.7091 44.488C28.7091 45.9143 28.7091 45.9143 28.7473 47.2302C27.0239 47.1878 27.0239 47.1878 25.3216 47.1071C25.2155 45.7997 25.2155 45.7997 25.1179 44.3818Z" fill="#00A19B"/>
<path fill-rule="evenodd" clip-rule="evenodd" d="M35.8661 44.284C37.5641 44.1482 37.5641 44.1482 39.2621 43.9784C39.0711 45.3538 39.0711 45.3538 38.8631 46.623C37.267 46.8268 37.267 46.8268 35.6115 46.9923C35.743 45.6976 35.7431 45.6976 35.8831 44.284" fill="#00A19B"/>
<path fill-rule="evenodd" clip-rule="evenodd" d="M40.871 43.7533C42.4119 43.5198 42.4119 43.5198 43.8849 43.2439C43.5793 44.5641 43.5793 44.5641 43.2567 45.7909C41.8686 46.1008 41.8686 46.1008 40.3828 46.3852C40.6375 45.1117 40.6375 45.1117 40.871 43.7703" fill="#00A19B"/>
<path fill-rule="evenodd" clip-rule="evenodd" d="M45.2603 42.951C46.5338 42.6199 46.5338 42.6199 47.7267 42.2633C47.3446 43.4774 47.3446 43.4774 46.9159 44.6108C45.8037 45.0353 45.8037 45.0353 44.5726 45.4173C44.9292 44.2372 44.9292 44.2372 45.2603 42.951Z" fill="#00A19B"/>
<path fill-rule="evenodd" clip-rule="evenodd" d="M48.8008 41.8727C49.408 41.632 50.0005 41.3556 50.5751 41.0449C50.2917 41.769 49.97 42.4775 49.6115 43.1674C49.0676 43.5337 48.5004 43.8641 47.9135 44.1565C48.3635 43.0698 48.3635 43.0698 48.7625 41.8812" fill="#00A19B"/>
<path fill-rule="evenodd" clip-rule="evenodd" d="M51.2883 40.5695C51.6576 40.2919 51.9925 39.9712 52.2859 39.6144C51.9888 40.1875 51.9887 40.1875 51.6788 40.7266C51.4624 41.0874 51.2544 41.4397 50.9997 41.7878C50.7807 42.0909 50.5364 42.3749 50.2695 42.6368C50.8002 41.6605 50.8002 41.6605 51.2968 40.5822" fill="#00A19B"/>
<path fill-rule="evenodd" clip-rule="evenodd" d="M25.4023 48.2954C27.0706 48.3846 27.0705 48.3846 28.7685 48.427C28.794 49.5052 28.794 49.5052 28.8025 50.4476C27.2276 50.4009 27.2276 50.4009 25.6442 50.3033C25.5296 49.3651 25.5296 49.3651 25.4023 48.2954Z" fill="#00A19B"/>
<path fill-rule="evenodd" clip-rule="evenodd" d="M30.4581 48.427C32.1561 48.3803 32.1561 48.3803 33.8031 48.2954C33.697 49.3609 33.697 49.3609 33.5612 50.299C32.0033 50.3967 32.0033 50.3967 30.4029 50.4476C30.4369 49.501 30.4369 49.501 30.4581 48.427Z" fill="#00A19B"/>
<path fill-rule="evenodd" clip-rule="evenodd" d="M35.4543 48.1596C37.0505 47.9855 37.0505 47.9855 38.6084 47.769C38.3749 48.7963 38.3749 48.7963 38.1032 49.709C36.6472 49.951 36.6472 49.951 35.1317 50.1335C35.2803 49.2081 35.2803 49.2081 35.4543 48.1469" fill="#00A19B"/>
<path fill-rule="evenodd" clip-rule="evenodd" d="M40.1111 47.5101C41.5502 47.2087 41.5502 47.2087 42.9171 46.8649C42.699 47.4894 42.4439 48.1004 42.153 48.6945C40.8795 49.0808 40.8795 49.0808 39.5211 49.4161C39.8183 48.5289 39.8182 48.5289 40.1111 47.5101Z" fill="#00A19B"/>
<path fill-rule="evenodd" clip-rule="evenodd" d="M44.2204 46.4829C45.392 46.0796 45.392 46.0796 46.4787 45.6339C46.1864 46.2127 45.856 46.7715 45.4896 47.3064C44.4708 47.8158 44.4708 47.8158 43.3671 48.2743C43.6823 47.6944 43.9657 47.0978 44.2161 46.4872" fill="#00A19B"/>
<path fill-rule="evenodd" clip-rule="evenodd" d="M47.4466 45.133C48.0093 44.8149 48.5496 44.4589 49.064 44.0675C48.7119 44.5854 48.3217 45.0764 47.8966 45.5363L47.8499 45.5787C47.3902 46.0067 46.8993 46.3997 46.3811 46.7546C46.7755 46.2409 47.1316 45.6989 47.4466 45.133Z" fill="#00A19B"/>
<path fill-rule="evenodd" clip-rule="evenodd" d="M25.7758 51.1058C27.2913 51.2077 27.2913 51.2077 28.8237 51.2586C28.8534 51.9251 28.8534 51.9251 28.8874 52.4515C27.4526 52.3963 27.4526 52.3963 26.0433 52.2859C25.9253 51.8997 25.8359 51.5052 25.7758 51.1058Z" fill="#00A19B"/>
<path fill-rule="evenodd" clip-rule="evenodd" d="M30.3818 51.2584C31.9185 51.2032 31.9184 51.2032 33.4551 51.097C33.3151 51.7635 33.315 51.7635 33.1877 52.2772C31.7529 52.3918 31.7529 52.3918 30.3223 52.4512C30.3563 51.9248 30.3563 51.9248 30.3818 51.2584Z" fill="#00A19B"/>
<path fill-rule="evenodd" clip-rule="evenodd" d="M34.9536 50.9442C36.4054 50.7405 36.4053 50.7405 37.8401 50.4773C37.6667 50.8683 37.4668 51.247 37.2416 51.6107C35.9214 51.8909 35.9214 51.8909 34.5673 52.1116C34.7265 51.7332 34.8556 51.3429 34.9536 50.9442Z" fill="#00A19B"/>
<path fill-rule="evenodd" clip-rule="evenodd" d="M39.207 50.1718C40.4805 49.8237 40.4805 49.8237 41.754 49.4247C41.5016 49.8 41.2099 50.1472 40.8838 50.4605C39.7504 50.885 39.7503 50.885 38.5278 51.2798C38.7999 50.9364 39.0347 50.565 39.2282 50.1718" fill="#00A19B"/>
<path fill-rule="evenodd" clip-rule="evenodd" d="M42.9044 48.9535C43.5981 48.6512 44.2754 48.3126 44.9335 47.939C44.681 48.1994 44.4069 48.438 44.1142 48.6521C43.7704 48.8899 43.4138 49.1148 43.0572 49.3356C42.4969 49.6582 42.4968 49.6582 41.9238 49.9553C42.2903 49.6597 42.6209 49.322 42.9086 48.9493" fill="#00A19B"/>
<path fill-rule="evenodd" clip-rule="evenodd" d="M26.1749 52.6508C27.5503 52.7696 27.5503 52.7696 28.9257 52.8291C28.9259 52.9313 28.9416 53.0329 28.9724 53.1304C28.1234 53.1106 27.2815 53.0484 26.4466 52.9437C26.3278 52.863 26.3277 52.863 26.1749 52.6508Z" fill="#00A19B"/>
<path fill-rule="evenodd" clip-rule="evenodd" d="M30.3052 52.8248C31.6848 52.7654 31.6848 52.7654 33.0347 52.6508C32.9074 52.8588 32.9074 52.8588 32.7588 52.9437C31.9296 53.0455 31.0891 53.1078 30.2373 53.1304C30.2693 53.0309 30.292 52.9286 30.3052 52.8248Z" fill="#00A19B"/>
<path fill-rule="evenodd" clip-rule="evenodd" d="M34.3805 52.4727C35.6539 52.2477 35.6539 52.2477 36.9274 51.9548C36.8011 52.0575 36.6573 52.1366 36.5029 52.1883C35.6794 52.4175 34.8389 52.6071 33.9814 52.7571C34.1313 52.7034 34.2605 52.6039 34.3508 52.4727" fill="#00A19B"/>
<path d="M81.7545 15.6771C80.1347 15.0373 78.4015 14.734 76.6605 14.7857H67.3725V40.8882H72.1481V31.8251H76.7709C78.4841 31.8738 80.1881 31.5599 81.7715 30.9039C83.0933 30.3282 84.1875 29.3311 84.8831 28.0683C85.6441 26.5661 86.0094 24.8947 85.9444 23.212C85.9444 21.2706 85.5878 19.6802 84.8746 18.4406C84.1672 17.2011 83.0704 16.2297 81.7545 15.6771ZM79.8995 26.7353C79.0844 27.4683 77.8633 27.8348 76.236 27.8348H72.1693V18.776H76.1214C77.8024 18.776 79.0547 19.1354 79.8782 19.8542C80.7018 20.573 81.115 21.7178 81.1178 23.2884C81.1178 24.8548 80.7273 26.001 79.8995 26.7353Z" fill="white"/>
<path d="M93.5472 14.7854H88.7716V40.8879H104.287V36.6386H93.5472V14.7854Z" fill="white"/>
<path d="M115.642 14.7854L106.359 40.8879H110.981L113.159 34.6987H122.642L124.816 40.8879H129.443L120.155 14.7854H115.642ZM114.624 30.5216L117.901 21.1826L121.174 30.5216H114.624Z" fill="white"/>
<path d="M128.135 19.4082H135.517V40.8879H140.293V19.4082H147.675V14.7854H128.135V19.4082Z" fill="white"/>
<path d="M151.109 40.8879H155.881V29.5877H164.608V24.9649H155.881V19.4082H167.181V14.7854H151.109V40.8879Z" fill="white"/>
<path d="M188.44 15.9483C186.402 14.8423 184.119 14.2629 181.801 14.2629C179.482 14.2629 177.2 14.8423 175.161 15.9483C173.226 17.0698 171.644 18.7109 170.594 20.6857C169.502 22.9113 168.934 25.3574 168.934 27.8364C168.934 30.3155 169.502 32.7616 170.594 34.9871C171.644 36.962 173.226 38.6031 175.161 39.7246C177.2 40.8306 179.482 41.4099 181.801 41.4099C184.119 41.4099 186.402 40.8306 188.44 39.7246C190.375 38.6031 191.957 36.962 193.007 34.9871C194.099 32.7616 194.667 30.3155 194.667 27.8364C194.667 25.3574 194.099 22.9113 193.007 20.6857C191.957 18.7109 190.375 17.0698 188.44 15.9483ZM188.792 32.4529C188.25 33.7495 187.336 34.856 186.164 35.6324C184.834 36.389 183.331 36.7868 181.801 36.7868C180.27 36.7868 178.767 36.389 177.437 35.6324C176.265 34.856 175.351 33.7495 174.809 32.4529C173.637 29.4868 173.637 26.1861 174.809 23.22C175.351 21.9234 176.265 20.8169 177.437 20.0405C178.767 19.2839 180.27 18.8861 181.801 18.8861C183.331 18.8861 184.834 19.2839 186.164 20.0405C187.336 20.8169 188.25 21.9234 188.792 23.22C189.964 26.1861 189.964 29.4868 188.792 32.4529Z" fill="white"/>
<path d="M215.294 27.2488C216.109 26.1168 216.516 24.5971 216.516 22.6897C216.579 21.1339 216.189 19.5932 215.396 18.2537C214.646 17.0773 213.548 16.1645 212.254 15.643C210.752 15.0452 209.146 14.7564 207.53 14.794H197.983V40.888H202.754V31.1924H207.602L212.649 40.888H217.981L212.093 29.9232C213.363 29.3079 214.462 28.3894 215.294 27.2488ZM210.361 26.0008C209.591 26.8017 208.224 27.2022 206.26 27.2022H202.754V18.7758H206.447C208.309 18.7758 209.621 19.1451 210.382 19.8838C210.773 20.2897 211.075 20.7717 211.271 21.2998C211.467 21.8278 211.551 22.3906 211.52 22.9529C211.54 23.5115 211.449 24.0686 211.253 24.5919C211.056 25.1151 210.757 25.594 210.374 26.0008H210.361Z" fill="white"/>
<path d="M247.891 40.8879L244.274 14.7854H240.356L234.018 26.6799L227.638 14.7854H223.724L220.107 40.8879H225.066L227.294 23.4197L234.018 35.4076L240.7 23.3942L242.929 40.8879H247.891Z" fill="white"/>
<path d="M72.3434 50.3075C72.3559 50.8374 72.2561 51.364 72.0505 51.8526C71.8684 52.2801 71.5565 52.6394 71.159 52.8799C70.6828 53.1216 70.1563 53.2475 69.6223 53.2475C69.0883 53.2475 68.5619 53.1216 68.0857 52.8799C67.6868 52.6379 67.3737 52.2772 67.19 51.8484C66.9849 51.3581 66.8852 50.8303 66.8971 50.299C66.8851 49.7704 66.9849 49.2453 67.19 48.7581C67.3754 48.3347 67.6886 47.98 68.0857 47.7435C68.5581 47.4839 69.0922 47.3577 69.6308 47.3784C70.164 47.3582 70.6925 47.4845 71.159 47.7435C71.5561 47.9807 71.8681 48.3372 72.0505 48.7623C72.2552 49.2512 72.355 49.7776 72.3434 50.3075ZM68.1706 50.3075C68.1439 50.8009 68.2635 51.2911 68.5144 51.7168C68.6503 51.8791 68.8201 52.0097 69.0119 52.0993C69.2037 52.1889 69.4128 52.2353 69.6245 52.2353C69.8362 52.2353 70.0453 52.1889 70.2371 52.0993C70.4289 52.0097 70.5987 51.8791 70.7345 51.7168C70.9551 51.279 71.07 50.7956 71.07 50.3053C71.07 49.8151 70.9551 49.3317 70.7345 48.8939C70.6107 48.7204 70.4438 48.5822 70.2502 48.4929C70.0567 48.4036 69.8432 48.3662 69.6308 48.3845C69.4169 48.3685 69.2024 48.4068 69.0072 48.4959C68.812 48.5849 68.6425 48.7218 68.5144 48.8939C68.2634 49.3211 68.1438 49.8127 68.1706 50.3075ZM68.2767 46.3469C68.2695 46.2727 68.2799 46.1978 68.3072 46.1285C68.3345 46.0591 68.3779 45.9972 68.4338 45.9479C68.5442 45.8626 68.6805 45.8176 68.82 45.8205C68.9597 45.8169 69.0962 45.8619 69.2063 45.9479C69.2586 45.9999 69.3 46.0618 69.3283 46.1299C69.3566 46.198 69.3712 46.271 69.3712 46.3448C69.3712 46.4185 69.3566 46.4915 69.3283 46.5597C69.3 46.6278 69.2586 46.6896 69.2063 46.7417C69.0962 46.8276 68.9597 46.8726 68.82 46.869C68.6805 46.8719 68.5442 46.827 68.4338 46.7417C68.3788 46.6926 68.3359 46.6313 68.3087 46.5628C68.2814 46.4943 68.2705 46.4204 68.2767 46.3469ZM69.8516 46.3469C69.8452 46.2724 69.8565 46.1974 69.8845 46.1281C69.9125 46.0587 69.9565 45.997 70.0129 45.9479C70.1263 45.8651 70.2631 45.8204 70.4035 45.8204C70.5439 45.8204 70.6806 45.8651 70.794 45.9479C70.8462 45.9999 70.8877 46.0618 70.9159 46.1299C70.9442 46.198 70.9588 46.271 70.9588 46.3448C70.9588 46.4185 70.9442 46.4915 70.9159 46.5597C70.8877 46.6278 70.8462 46.6896 70.794 46.7417C70.6806 46.8245 70.5439 46.8691 70.4035 46.8691C70.2631 46.8691 70.1263 46.8245 70.0129 46.7417C69.9571 46.693 69.9135 46.6319 69.8855 46.5634C69.8575 46.4948 69.8459 46.4207 69.8516 46.3469Z" fill="#FF8300"/>
<path d="M78.2737 50.2606C78.3029 50.6616 78.2443 51.0642 78.1021 51.4402C77.9599 51.8163 77.7374 52.1569 77.4502 52.4383C76.8005 52.9588 75.9804 53.2191 75.1494 53.1684H73.5321V47.4674H75.3235C75.8602 47.4542 76.3929 47.563 76.8814 47.7858C77.3109 47.9873 77.6691 48.3144 77.9087 48.7239C78.1658 49.1942 78.2918 49.7249 78.2737 50.2606ZM77.0002 50.2946C77.0419 49.7919 76.8901 49.2923 76.5757 48.8979C76.4148 48.7467 76.2241 48.6309 76.0157 48.5578C75.8074 48.4847 75.586 48.4559 75.3659 48.4734H74.7207V52.1878H75.2385C76.4314 52.1708 77.013 51.5426 77.013 50.2946H77.0002Z" fill="#FF8300"/>
<path d="M82.7522 53.1688H79.4538V47.4678H82.7479V48.4569H80.6636V49.7091H82.6036V50.6982H80.6636V52.1712H82.7479L82.7522 53.1688Z" fill="#FF8300"/>
<path d="M86.3646 53.1688L84.9723 48.6946C84.9723 48.805 84.9723 48.962 84.9723 49.1743C84.9723 49.3865 84.9722 49.5988 85.0062 49.8577C85.0402 50.1167 85.0062 50.3204 85.0062 50.5157V53.1688H83.9238V47.4678H85.5751L86.9292 51.8274L88.364 47.4678H90.0663V53.1688H88.9371V50.469C88.9371 50.285 88.9371 50.077 88.9371 49.845C88.9371 49.6115 88.9371 49.3908 88.9583 49.1785C88.9796 48.9663 88.9583 48.8092 88.9583 48.7031H88.9244L87.4513 53.1688H86.3646Z" fill="#FF8300"/>
<path d="M94.7909 53.1688H91.4968V47.4678H94.7909V48.4569H92.7066V49.7091H94.6466V50.6982H92.7066V52.1712H94.7909V53.1688Z" fill="#FF8300"/>
<path d="M102.755 53.1688H101.528V50.7067H99.261V53.1688H98.0511V47.4678H99.261V49.7006H101.528V47.4678H102.738L102.755 53.1688Z" fill="#FF8300"/>
<path d="M106.337 53.1688H103.731V52.4811L104.427 52.1627V48.4738L103.731 48.1512V47.4677H106.337V48.1512L105.637 48.4738V52.1627L106.337 52.4811V53.1688ZM105.038 45.757C105.198 45.7544 105.356 45.7971 105.493 45.8801C105.563 45.9335 105.618 46.0043 105.652 46.0855C105.686 46.1666 105.699 46.2554 105.688 46.3428C105.697 46.4289 105.684 46.5161 105.65 46.5957C105.616 46.6753 105.562 46.7447 105.493 46.797C105.357 46.884 105.199 46.9284 105.038 46.9244C104.875 46.9296 104.714 46.8852 104.576 46.797C104.509 46.7429 104.457 46.673 104.425 46.5937C104.392 46.5143 104.38 46.4281 104.389 46.3428C104.379 46.2562 104.391 46.1685 104.423 46.0877C104.456 46.0069 104.508 45.9355 104.576 45.8801C104.715 45.7955 104.876 45.7528 105.038 45.757Z" fill="#FF8300"/>
<path d="M111.037 53.1688H106.792V52.3835L109.534 48.4653H106.864V47.4678H110.973V48.2489L108.235 52.1712H111.045L111.037 53.1688Z" fill="#FF8300"/>
<path d="M114.369 53.1688L112.989 48.6946H112.955C112.955 48.805 112.955 48.962 112.981 49.1743C113.006 49.3865 112.981 49.5988 113.011 49.8577C113.04 50.1167 113.011 50.3204 113.011 50.5157V53.1688H111.928V47.4678H113.579L114.933 51.8274H114.959L116.394 47.4678H118.083V53.1688H116.954V50.469C116.954 50.285 116.954 50.077 116.954 49.845C116.954 49.6115 116.954 49.3908 116.98 49.1785C117.005 48.9663 116.98 48.8092 116.98 48.7031H116.95L115.477 53.1688H114.369Z" fill="#FF8300"/>
<path d="M122.799 53.1688H119.505V47.4678H122.799V48.4569H120.715V49.7091H122.655V50.6982H120.715V52.1712H122.799V53.1688Z" fill="#FF8300"/>
<path d="M126.195 53.1688H124.986V48.4738H123.432V47.4678H127.749V48.4738H126.195V53.1688Z" fill="#FF8300"/>
<path d="M128.628 53.1688V47.4678H129.838V52.1712H132.164V53.1688H128.628Z" fill="#FF8300"/>
<path d="M136.447 53.1688H133.157V47.4678H136.447V48.4569H134.367V49.7091H136.303V50.6982H134.367V52.1712H136.447V53.1688Z" fill="#FF8300"/>
<path d="M139.308 47.4677C139.915 47.4228 140.519 47.5715 141.036 47.8922C141.223 48.0451 141.371 48.2404 141.468 48.4618C141.564 48.6833 141.607 48.9245 141.592 49.1657C141.598 49.3909 141.552 49.6144 141.458 49.8191C141.364 50.0237 141.224 50.2039 141.049 50.3458C140.891 50.4795 140.715 50.591 140.527 50.6769L142.225 53.1602H140.879L139.516 50.9698H138.871V53.1602H137.661V47.4677H139.308ZM139.219 48.4567H138.854V49.9977H139.245C139.541 50.0195 139.838 49.9498 140.094 49.7982C140.181 49.7279 140.25 49.6376 140.295 49.5349C140.34 49.4322 140.36 49.32 140.352 49.2081C140.362 49.0954 140.342 48.9821 140.293 48.8799C140.245 48.7777 140.17 48.6902 140.077 48.6265C139.81 48.4981 139.515 48.4397 139.219 48.4567Z" fill="#FF8300"/>
<path d="M145.069 53.1686H142.466V52.4809L143.163 52.1626V48.4737L142.466 48.151V47.4676H145.069V48.151L144.373 48.4737V52.1626L145.069 52.4809V53.1686ZM143.77 45.7569C143.931 45.7535 144.09 45.7962 144.228 45.88C144.297 45.9344 144.35 46.0055 144.384 46.0865C144.417 46.1675 144.429 46.2557 144.419 46.3427C144.429 46.4284 144.416 46.5152 144.383 46.5947C144.349 46.6742 144.296 46.7438 144.228 46.7969C144.092 46.8845 143.932 46.9289 143.77 46.9243C143.607 46.93 143.447 46.8855 143.311 46.7969C143.243 46.7438 143.19 46.6742 143.157 46.5947C143.123 46.5152 143.111 46.4284 143.12 46.3427C143.11 46.2557 143.122 46.1675 143.156 46.0865C143.189 46.0055 143.243 45.9344 143.311 45.88C143.449 45.7946 143.608 45.7518 143.77 45.7569Z" fill="#FF8300"/>
<path d="M152.616 47.4678L150.668 53.1688H149.348L147.408 47.4678H148.647L149.717 50.8638C149.756 50.969 149.787 51.0768 149.81 51.1864C149.853 51.3435 149.891 51.509 149.933 51.6831C149.973 51.8222 150.003 51.9641 150.023 52.1075C150.023 51.9929 150.069 51.8486 150.107 51.6831C150.146 51.5175 150.188 51.3435 150.231 51.1864L150.32 50.8638L151.402 47.4678H152.616Z" fill="#FF8300"/>
<path d="M156.628 53.1688H153.317V47.4678H156.611V48.4569H154.527V49.7091H156.467V50.6982H154.527V52.1712H156.611L156.628 53.1688Z" fill="#FF8300"/>
<path d="M163.199 53.1688H159.905V47.4678H163.199V48.4569H161.115V49.7091H163.055V50.6982H161.115V52.1712H163.199V53.1688Z" fill="#FF8300"/>
<path d="M164.392 53.1688V47.4678H165.602V52.1712H167.924V53.1688H164.392Z" fill="#FF8300"/>
<path d="M172.211 53.1688H168.917V47.4678H172.211V48.4569H170.127V49.7091H172.067V50.6982H170.127V52.1712H172.211V53.1688Z" fill="#FF8300"/>
<path d="M178.001 53.1688H176.626L175.128 50.7661L174.614 51.1312V53.1688H173.404V47.4678H174.614V50.0784L174.852 49.7431L175.094 49.4077L176.639 47.4678H177.984L175.989 49.9893L178.001 53.1688Z" fill="#FF8300"/>
<path d="M180.909 53.1688H179.699V48.4738H178.146V47.4678H182.463V48.4738H180.909V53.1688Z" fill="#FF8300"/>
<path d="M185.027 47.4677C185.633 47.4228 186.238 47.5715 186.755 47.8922C186.942 48.0451 187.09 48.2404 187.186 48.4618C187.283 48.6833 187.326 48.9245 187.311 49.1657C187.316 49.402 187.265 49.6361 187.162 49.8491C187.067 50.0397 186.935 50.2088 186.772 50.3458C186.611 50.4787 186.434 50.59 186.245 50.6769L187.943 53.1602H186.598L185.235 50.9698H184.59V53.1602H183.38V47.4677H185.027ZM184.938 48.4567H184.573V49.9977H184.963C185.26 50.0195 185.556 49.9498 185.812 49.7982C185.9 49.7279 185.969 49.6376 186.014 49.5349C186.059 49.4322 186.079 49.32 186.071 49.2081C186.082 49.0953 186.062 48.9817 186.013 48.8793C185.965 48.7769 185.889 48.6896 185.795 48.6265C185.528 48.4981 185.233 48.4397 184.938 48.4567Z" fill="#FF8300"/>
<path d="M193.839 50.3076C193.852 50.8376 193.752 51.3642 193.546 51.8528C193.363 52.2793 193.051 52.6383 192.655 52.8801C192.179 53.1217 191.652 53.2477 191.118 53.2477C190.584 53.2477 190.058 53.1217 189.582 52.8801C189.182 52.6394 188.868 52.2783 188.686 51.8486C188.481 51.3583 188.381 50.8304 188.393 50.2992C188.381 49.7706 188.481 49.2455 188.686 48.7582C188.87 48.334 189.184 47.9788 189.582 47.7437C190.058 47.502 190.584 47.3761 191.118 47.3761C191.652 47.3761 192.179 47.502 192.655 47.7437C193.051 47.9822 193.363 48.3383 193.546 48.7625C193.751 49.2513 193.851 49.7778 193.839 50.3076ZM189.667 50.3076C189.64 50.801 189.759 51.2913 190.01 51.717C190.146 51.8793 190.316 52.0099 190.508 52.0995C190.7 52.189 190.909 52.2355 191.12 52.2355C191.332 52.2355 191.541 52.189 191.733 52.0995C191.925 52.0099 192.095 51.8793 192.231 51.717C192.451 51.2792 192.566 50.7958 192.566 50.3055C192.566 49.8153 192.451 49.3319 192.231 48.8941C192.106 48.7202 191.938 48.5819 191.744 48.4925C191.55 48.4032 191.336 48.366 191.123 48.3847C190.909 48.3665 190.694 48.4039 190.5 48.4932C190.305 48.5824 190.136 48.7205 190.01 48.8941C189.759 49.3212 189.64 49.8129 189.667 50.3076Z" fill="#FF8300"/>
<path d="M200.097 53.1688H198.56L196.068 48.8559H196.034C196.034 49.1276 196.034 49.3992 196.072 49.6709C196.11 49.9426 196.098 50.2143 196.106 50.486V53.1688H195.024V47.4678H196.556L199.04 51.7382C199.04 51.4708 199.04 51.2076 199.04 50.9487C199.04 50.6897 199.04 50.4265 199.006 50.1633V47.4678H200.097V53.1688Z" fill="#FF8300"/>
<path d="M203.675 53.1688H201.073V52.4811L201.769 52.1627V48.4738L201.073 48.1512V47.4677H203.675V48.1512L202.979 48.4738V52.1627L203.675 52.4811V53.1688ZM202.38 45.757C202.54 45.7544 202.698 45.7971 202.835 45.8801C202.903 45.9345 202.957 46.0056 202.99 46.0866C203.024 46.1676 203.036 46.2558 203.026 46.3428C203.035 46.4285 203.023 46.5153 202.989 46.5948C202.956 46.6743 202.903 46.7439 202.835 46.797C202.699 46.884 202.541 46.9284 202.38 46.9244C202.217 46.9296 202.055 46.8852 201.918 46.797C201.85 46.7435 201.798 46.6736 201.765 46.5941C201.733 46.5147 201.721 46.4282 201.731 46.3428C201.72 46.2562 201.732 46.1682 201.764 46.0873C201.797 46.0063 201.85 45.935 201.918 45.8801C202.057 45.7955 202.217 45.7528 202.38 45.757Z" fill="#FF8300"/>
<path d="M209.253 53.1688H207.873L206.375 50.7661L205.861 51.1312V53.1688H204.656V47.4678H205.861V50.0784L206.103 49.7431L206.345 49.4077L207.89 47.4678H209.236L207.241 49.9893L209.253 53.1688Z" fill="#FF8300"/>
<path d="M213.88 47.4679C214.46 47.4169 215.037 47.5867 215.497 47.9433C215.67 48.1119 215.805 48.3153 215.893 48.54C215.98 48.7647 216.019 49.0056 216.007 49.2465C216.007 49.568 215.936 49.8856 215.799 50.1762C215.647 50.4779 215.403 50.7233 215.103 50.8766C214.692 51.0705 214.24 51.1608 213.787 51.1398H213.264V53.1689H212.055V47.4679H213.88ZM213.816 48.4569H213.264V50.1549H213.664C213.949 50.1701 214.233 50.0992 214.479 49.9512C214.581 49.8763 214.662 49.7765 214.715 49.6614C214.768 49.5462 214.79 49.4195 214.78 49.2932C214.78 48.7329 214.445 48.4569 213.816 48.4569Z" fill="#FF8300"/>
<path d="M220.188 53.1688L219.764 51.8104H217.679L217.255 53.1688H215.947L217.968 47.4423H219.45L221.474 53.1688H220.188ZM219.067 49.4714C219.038 49.3822 219.004 49.2676 218.961 49.1275L218.834 48.703C218.792 48.5587 218.753 48.4356 218.728 48.3295C218.702 48.4356 218.664 48.5672 218.622 48.7242C218.579 48.8813 218.533 49.0299 218.494 49.17C218.456 49.3101 218.422 49.4119 218.401 49.4714L217.976 50.7958H219.466L219.067 49.4714Z" fill="#FF8300"/>
<path d="M223.881 47.4676C224.486 47.4229 225.09 47.5715 225.605 47.8921C225.871 48.1359 226.055 48.4564 226.131 48.8093C226.207 49.1622 226.171 49.53 226.029 49.8618C225.932 50.0518 225.797 50.2205 225.634 50.3585C225.476 50.4914 225.3 50.6027 225.112 50.6896L226.81 53.1729H225.465L224.102 50.9825H223.452V53.1729H222.243V47.4676H223.881ZM223.792 48.4567H223.423V49.9977H223.813C224.11 50.02 224.407 49.9503 224.662 49.7981C224.751 49.7284 224.821 49.6383 224.867 49.5355C224.912 49.4327 224.933 49.3204 224.925 49.2081C224.935 49.0954 224.915 48.9821 224.866 48.8799C224.818 48.7777 224.743 48.6902 224.65 48.6265C224.38 48.4972 224.082 48.4388 223.784 48.4567H223.792Z" fill="#FF8300"/>
<path d="M231 53.1688L230.576 51.8104H228.496L228.071 53.1688H226.768L228.784 47.4423H230.266L232.295 53.1688H231ZM229.879 49.4714L229.778 49.1275C229.735 48.9874 229.688 48.8474 229.646 48.703C229.604 48.5587 229.57 48.4356 229.544 48.3295C229.519 48.4356 229.48 48.5672 229.434 48.7242C229.387 48.8813 229.349 49.0299 229.306 49.17C229.264 49.3101 229.238 49.4119 229.217 49.4714L228.793 50.7958H230.283L229.879 49.4714Z" fill="#FF8300"/>
<path d="M238.611 53.1688L238.187 51.8104H236.094L235.67 53.1688H234.396L236.412 47.4423H237.894L239.923 53.1688H238.611ZM237.491 49.4714C237.465 49.3822 237.427 49.2676 237.385 49.1275L237.257 48.703C237.215 48.5587 237.181 48.4356 237.155 48.3295C237.126 48.4356 237.092 48.5672 237.045 48.7242C236.998 48.8813 236.956 49.0299 236.918 49.17C236.879 49.3101 236.845 49.4119 236.824 49.4714L236.4 50.7958H237.89L237.491 49.4714Z" fill="#FF8300"/>
<path d="M240.373 52.6082C240.363 52.5129 240.375 52.4165 240.41 52.3271C240.445 52.2377 240.501 52.1579 240.573 52.0946C240.716 51.9932 240.889 51.9411 241.065 51.946C241.237 51.9423 241.405 51.9944 241.545 52.0946C241.673 52.2333 241.744 52.4152 241.744 52.604C241.744 52.7928 241.673 52.9746 241.545 53.1134C241.408 53.2198 241.238 53.2753 241.065 53.2704C240.888 53.2765 240.714 53.221 240.573 53.1134C240.502 53.0507 240.447 52.9723 240.413 52.8845C240.378 52.7968 240.364 52.7022 240.373 52.6082Z" fill="#FF8300"/>
<path d="M246.282 51.5853C246.291 51.8156 246.246 52.0447 246.151 52.2546C246.056 52.4645 245.913 52.6495 245.735 52.7951C245.282 53.1221 244.73 53.2812 244.172 53.2451C243.614 53.2561 243.061 53.14 242.555 52.9055V51.7763C242.827 51.8952 243.111 52.0013 243.404 52.1032C243.678 52.1959 243.964 52.2446 244.253 52.2475C244.479 52.2706 244.705 52.2102 244.89 52.0777C244.95 52.0248 244.998 51.9595 245.031 51.8862C245.064 51.813 245.081 51.7335 245.081 51.6532C245.081 51.5856 245.068 51.5185 245.043 51.4559C245.017 51.3932 244.98 51.3362 244.932 51.2882C244.814 51.1746 244.679 51.0787 244.533 51.0037C244.368 50.9146 244.177 50.8212 243.964 50.7193C243.833 50.6556 243.688 50.5792 243.54 50.4943C243.388 50.4001 243.245 50.2906 243.115 50.1675C242.969 50.0323 242.85 49.8711 242.763 49.692C242.668 49.4814 242.622 49.2522 242.627 49.0213C242.615 48.7956 242.656 48.5702 242.747 48.3631C242.838 48.156 242.975 47.9729 243.149 47.8285C243.558 47.5255 244.059 47.3753 244.567 47.404C244.853 47.4027 245.138 47.4369 245.416 47.5059C245.706 47.5833 245.99 47.6827 246.265 47.803L245.875 48.7454C245.645 48.6492 245.41 48.567 245.17 48.4992C244.961 48.4399 244.746 48.4099 244.529 48.41C244.338 48.3955 244.149 48.453 243.998 48.5714C243.937 48.6229 243.888 48.6882 243.857 48.7619C243.825 48.8356 243.811 48.9158 243.816 48.9959C243.814 49.0929 243.838 49.1886 243.886 49.273C243.933 49.3575 244.003 49.4274 244.087 49.4755C244.347 49.6337 244.617 49.7755 244.894 49.9C245.157 50.0172 245.409 50.1593 245.645 50.3245C245.84 50.4632 246.003 50.6429 246.121 50.8509C246.236 51.0782 246.291 51.3308 246.282 51.5853ZM245.225 54.1323C245.232 54.2603 245.213 54.3884 245.167 54.5083C245.122 54.6282 245.052 54.7373 244.962 54.8285C244.687 55.0234 244.35 55.111 244.015 55.0747C243.909 55.0757 243.802 55.0672 243.697 55.0492C243.612 55.0372 243.528 55.0187 243.446 54.994V54.3403C243.537 54.3644 243.629 54.3829 243.722 54.3955C243.816 54.4111 243.912 54.4196 244.007 54.421C244.075 54.4222 244.143 54.4046 244.202 54.37C244.232 54.3482 244.255 54.3192 244.27 54.2857C244.285 54.2522 244.291 54.2155 244.287 54.179C244.285 54.1282 244.27 54.0786 244.245 54.0343C244.22 53.9901 244.185 53.9524 244.143 53.9243C243.989 53.8319 243.816 53.7754 243.638 53.7587L243.943 53.1602H244.695L244.593 53.3979C244.75 53.4543 244.895 53.5425 245.017 53.6569C245.088 53.7159 245.144 53.79 245.182 53.8738C245.221 53.9575 245.24 54.0488 245.238 54.1408L245.225 54.1323Z" fill="#FF8300"/>
<path d="M247.072 52.6082C247.061 52.5129 247.074 52.4165 247.109 52.3271C247.144 52.2377 247.199 52.1579 247.271 52.0946C247.413 51.9932 247.585 51.9411 247.759 51.946C247.931 51.9417 248.1 51.9939 248.239 52.0946C248.37 52.2319 248.443 52.4143 248.443 52.604C248.443 52.7936 248.37 52.976 248.239 53.1134C248.102 53.2201 247.933 53.2757 247.759 53.2704C247.583 53.2766 247.411 53.221 247.271 53.1134C247.201 53.0507 247.146 52.9723 247.111 52.8845C247.077 52.7968 247.063 52.7022 247.072 52.6082Z" fill="#FF8300"/>
</svg>
